Coordinates
version=1
nRows=26
nColumns=24
inDegrees=yes

Units are S.I. units (second, meters, Newtons, ...)
Angles are in degrees.

endheader
time	pelvis_tilt	pelvis_list	pelvis_rotation	pelvis_tx	pelvis_ty	pelvis_tz	hip_flexion_r	hip_adduction_r	hip_rotation_r	knee_angle_r	ankle_angle_r	subtalar_angle_r	mtp_angle_r	hip_flexion_l	hip_adduction_l	hip_rotation_l	knee_angle_l	ankle_angle_l	subtalar_angle_l	mtp_angle_l	lumbar_extension	lumbar_bending	lumbar_rotation
      5.03500000	     13.22628111	     -6.90795320	      5.38692145	     -0.63031849	      0.91867752	     -0.25266610	    -30.37543755	     10.86008490	      0.28467035	     -8.51435976	     23.38572679	      9.23365786	      0.00000000	      8.97726869	     -4.29308252	      8.08842991	     -4.19471894	     10.76764942	      0.07701813	      0.00000000	    -30.61479399	      8.80938278	      0.63886064
      5.04000000	     13.16647625	     -6.63458431	      5.29713341	     -0.62368682	      0.91844867	     -0.25299301	    -30.41844604	     10.49911960	      0.16230290	     -9.23661260	     23.23073960	      9.62450688	      0.00000000	      8.93923026	     -3.96174412	      8.19140270	     -4.42931623	     10.56462552	     -0.28770896	      0.00000000	    -30.50953947	      8.43010210	      0.67338083
      5.04500000	     13.19399649	     -6.29073153	      5.25422267	     -0.61701148	      0.91835848	     -0.25348429	    -30.55381457	     10.07707421	     -0.10303664	     -9.95761669	     23.02917812	     10.25462727	      0.00000000	      8.81081050	     -3.54320427	      8.33213923	     -4.76427235	     10.37081514	     -0.71567941	      0.00000000	    -30.49310650	      8.03294107	      0.58373940
      5.05000000	     13.28387515	     -5.88265783	      5.26968938	     -0.61035545	      0.91834912	     -0.25402245	    -30.72695104	      9.62812016	     -0.47259406	    -10.73393102	     22.82215203	     10.84645277	      0.00000000	      8.62048184	     -3.05307330	      8.50941589	     -5.17544953	     10.20000782	     -1.11894200	      0.00000000	    -30.55118840	      7.57751673	      0.47940972
      5.05500000	     13.26545205	     -5.46892375	      5.19611581	     -0.60356918	      0.91833522	     -0.25446794	    -30.76422828	      9.12870225	     -0.73401948	    -11.57298911	     22.55224725	     11.36553523	      0.00000000	      8.52408444	     -2.55647652	      8.55409002	     -5.64526793	     10.03908588	     -1.49791063	      0.00000000	    -30.47649066	      7.07862982	      0.38635581
      5.06000000	     13.23306053	     -5.01581066	      5.13347102	     -0.59675456	      0.91834504	     -0.25493750	    -30.76924831	      8.59609830	     -0.99256079	    -12.44671123	     22.27269617	     11.89458862	      0.00000000	      8.45096010	     -2.01122246	      8.61761686	     -6.20302971	      9.88326093	     -1.84953092	      0.00000000	    -30.38400738	      6.53404124	      0.31352074
      5.06500000	     13.32078093	     -4.52871973	      5.15623573	     -0.59001841	      0.91847376	     -0.25559479	    -30.86884381	      8.05799183	     -1.45709130	    -13.37573515	     21.94966509	     12.59348107	      0.00000000	      8.25274735	     -1.41833409	      8.77097873	     -6.79755124	      9.72217809	     -2.28210272	      0.00000000	    -30.44013822	      6.01572403	      0.16247240
      5.07000000	     13.28796066	     -4.04163068	      5.08135419	     -0.58313620	      0.91857241	     -0.25610759	    -30.81587856	      7.47428335	     -1.77327731	    -14.37166199	     21.56759901	     13.16137587	      0.00000000	      8.15649773	     -0.83274948	      8.76942746	     -7.41883377	      9.58336815	     -2.63027209	      0.00000000	    -30.34282762	      5.44167962	      0.04237440
      5.07500000	     13.25960054	     -3.53637271	      5.02638341	     -0.57625458	      0.91869739	     -0.25668084	    -30.74134578	      6.87516157	     -2.12482685	    -15.41476484	     21.15234368	     13.76705499	      0.00000000	      8.05655131	     -0.22139787	      8.78688477	     -8.08217197	      9.44367109	     -2.96912305	      0.00000000	    -30.25493297	      4.85754960	     -0.07355681
      5.08000000	     13.19117623	     -3.02532244	      4.96462753	     -0.56934224	      0.91883015	     -0.25719072	    -30.59263670	      6.27065495	     -2.44854018	    -16.51702065	     20.67211888	     14.28291202	      0.00000000	      7.98727276	      0.38980318	      8.77425082	     -8.75485391	      9.29794848	     -3.21293373	      0.00000000	    -30.11617796	      4.24436492	     -0.12198062
      5.08500000	     13.19654764	     -2.50634537	      4.92692182	     -0.56247479	      0.91902058	     -0.25789905	    -30.49452331	      5.64105410	     -2.87762786	    -17.66649944	     20.18168530	     15.00964623	      0.00000000	      7.83778734	      1.02563530	      8.81111102	     -9.45161124	      9.18320687	     -3.59332943	      0.00000000	    -30.06986554	      3.68360928	     -0.28952395
      5.09000000	     13.11930189	     -1.98365425	      4.85655206	     -0.55550998	      0.91920593	     -0.25845290	    -30.28486289	      5.00298143	     -3.20446156	    -18.85726537	     19.58179488	     15.56607015	      0.00000000	      7.75338992	      1.64880485	      8.74397250	    -10.13427412	      9.04375547	     -3.80123516	      0.00000000	    -29.91820587	      3.06328793	     -0.37232139
      5.09500000	     13.05408090	     -1.47380122	      4.78002724	     -0.54858814	      0.91941135	     -0.25907343	    -30.04254209	      4.35488915	     -3.56747818	    -20.12309459	     18.95691592	     16.18128675	      0.00000000	      7.64149849	      2.26133316	      8.68903661	    -10.79570792	      8.93049984	     -4.03942710	      0.00000000	    -29.78716623	      2.47160382	     -0.45326547
      5.10000000	     12.98043882	     -0.96904363	      4.70234981	     -0.54165612	      0.91963732	     -0.25969594	    -29.76062501	      3.70432902	     -3.91609699	    -21.43208069	     18.26058716	     16.75597587	      0.00000000	      7.52110556	      2.86468713	      8.62004882	    -11.43301213	      8.82365940	     -4.23800417	      0.00000000	    -29.64484863	      1.88146785	     -0.52759630
      5.10500000	     12.90391976	     -0.47347961	      4.61483010	     -0.53474144	      0.91987626	     -0.26031088	    -29.43587548	      3.04755896	     -4.26391754	    -22.79873780	     17.52391291	     17.30790030	      0.00000000	      7.38442026	      3.45353459	      8.53489509	    -12.03474736	      8.73957980	     -4.42490049	      0.00000000	    -29.50088030	      1.30109784	     -0.59247998
      5.11000000	     12.81411753	      0.01424772	      4.51664247	     -0.52781572	      0.92013831	     -0.26091482	    -29.06860693	      2.38729480	     -4.57034154	    -24.19417093	     16.71212849	     17.81878269	      0.00000000	      7.24391427	      4.02896739	      8.43822640	    -12.60631440	      8.66267531	     -4.56092294	      0.00000000	    -29.33884946	      0.72073467	     -0.63838008
      5.11500000	     12.71923252	      0.48699093	      4.40847533	     -0.52091106	      0.92041394	     -0.26150849	    -28.65626027	      1.72719051	     -4.86321277	    -25.63837969	     15.85605351	     18.28226846	      0.00000000	      7.08705658	      4.58314221	      8.32777984	    -13.12867525	      8.60895318	     -4.67683732	      0.00000000	    -29.17174596	      0.15154305	     -0.66960076
      5.12000000	     12.61831623	      0.94559257	      4.29268670	     -0.51404013	      0.92070578	     -0.26207513	    -28.19757227	      1.06982956	     -5.14175191	    -27.12491423	     14.95358743	     18.68829926	      0.00000000	      6.91412566	      5.11540917	      8.20243284	    -13.59502515	      8.57707362	     -4.77376769	      0.00000000	    -29.00353236	     -0.41191284	     -0.68538583
      5.12500000	     12.50989936	      1.40177058	      4.14519878	     -0.50718070	      0.92099705	     -0.26266696	    -27.69639815	      0.38527644	     -5.39577101	    -28.64590518	     14.04865536	     19.03892630	      0.00000000	      6.73455015	      5.64518840	      8.06194754	    -14.03191304	      8.57028915	     -4.86610676	      0.00000000	    -28.82075605	     -0.96433046	     -0.68565246
      5.13000000	     12.39737069	      1.83478828	      3.98653039	     -0.50037083	      0.92130897	     -0.26323836	    -27.14844813	     -0.28947186	     -5.62654572	    -30.20193364	     13.10716863	     19.30101772	      0.00000000	      6.53882499	      6.14435537	      7.90397248	    -14.40964558	      8.58799024	     -4.93917074	      0.00000000	    -28.63820138	     -1.49800245	     -0.66362450
      5.13500000	     12.27621328	      2.25084368	      3.81265382	     -0.49359439	      0.92162840	     -0.26376252	    -26.55331668	     -0.95754366	     -5.81750169	    -31.78385396	     12.15036338	     19.47937815	      0.00000000	      6.33246549	      6.61877064	      7.73565265	    -14.73265267	      8.62777863	     -4.99279970	      0.00000000	    -28.44779252	     -2.02861901	     -0.61865293
      5.14000000	     12.15335129	      2.64901855	      3.62335087	     -0.48685396	      0.92196652	     -0.26428423	    -25.92108121	     -1.62137752	     -5.97790411	    -33.38081028	     11.18054581	     19.55515303	      0.00000000	      6.11079079	      7.07094914	      7.56145027	    -15.00720047	      8.69228499	     -5.02517460	      0.00000000	    -28.25232062	     -2.53663388	     -0.55808974
      5.14500000	     12.00626571	      2.99911773	      3.38415225	     -0.48021247	      0.92231000	     -0.26474571	    -25.20428141	     -2.26491676	     -6.04677806	    -35.01198022	     10.21348488	     19.56517923	      0.00000000	      5.90536053	      7.46647129	      7.35483955	    -15.23176690	      8.77542469	     -5.04524181	      0.00000000	    -28.03716079	     -3.02021779	     -0.41427260
      5.15000000	     11.87932114	      3.36481458	      3.17756712	     -0.47355667	      0.92266652	     -0.26522481	    -24.49953532	     -2.90717471	     -6.15050839	    -36.62636440	      9.27323259	     19.42624820	      0.00000000	      5.65510854	      7.87750866	      7.17951271	    -15.40863980	      8.89869271	     -5.04480774	      0.00000000	    -27.83787802	     -3.49873694	     -0.33577665
      5.15500000	     11.80867181	      3.73228055	      3.03537376	     -0.46693996	      0.92308206	     -0.26571216	    -23.85060767	     -3.51212261	     -6.30279628	    -38.20641417	      8.35824610	     19.11577871	      0.00000000	      5.32479850	      8.28960396	      7.10684263	    -15.54416035	      9.04946170	     -5.03744896	      0.00000000	    -27.70709461	     -3.95881029	     -0.35369714
      5.16000000	     11.65624694	      4.04419497	      2.73706895	     -0.46041279	      0.92345023	     -0.26614028	    -23.02773590	     -4.15122961	     -6.28049959	    -39.84537251	      7.52005203	     18.81892058	      0.00000000	      5.07675809	      8.63931399	      6.84882787	    -15.62029354	      9.19834197	     -5.04674032	      0.00000000	    -27.48001109	     -4.39844425	     -0.15215889
